<?xml version="1.0" standalone="yes"?>
<svg xmlns="http://www.w3.org/2000/svg" width="512" height="512">
<path style="fill:#010101; stroke:none;" d="M0 0L0 233L1 233C1.01625 208.458 9.10165 182.565 18.2006 160C45.7493 91.6796 104.046 36.336 174 13C192.649 6.77878 213.21 1.0545 233 1L211 0L164 0L0 0z"/>
<path style="fill:#cd26fc; stroke:none;" d="M233 0L234 1L233 0z"/>
<path style="fill:#ad2ef4; stroke:none;" d="M225 1L226 38L226 107C265.356 96.8177 315.203 104.576 349 127.358C368.319 140.38 386.528 169.671 361 187.348C341.031 201.175 318.035 176.991 301 169.312C276.827 158.414 249.18 159.621 225 169C228.186 182.383 226 198.271 226 212L226 296L226 329C226 332.885 224.827 339.194 227.028 342.606C232.768 351.506 254.975 350.6 264 350.086C300.723 347.994 328.996 324.221 329 286L289 286C263.808 285.96 245.708 255.337 267.093 236.468C275.469 229.078 285.479 229 296 229L351 229C362.523 229 374.529 228.878 383.91 236.681C404.341 253.674 394.037 294.475 387.859 316C368.271 384.242 293.21 421.389 226 404L226 474L225 511C241.945 511.011 258.986 513.076 276 511.91C322.548 508.723 368.139 491.629 406 464.573C528.368 377.124 547.515 195.322 446.83 84C407.607 40.6334 353.079 10.5199 295 2.28549C277.652 -0.174011 260.485 -0.00671387 243 0C236.98 0.00231934 230.948 1.82797 225 1z"/>
<path style="fill:#010101; stroke:none;" d="M279 0L279 1C369.417 1.24905 454.795 73.2281 490.306 152C501.421 176.656 510.925 205.682 511 233L512 233L512 0L279 0z"/>
<path style="fill:#cd26fc; stroke:none;" d="M225 511L226 476L226 404C206.146 401.079 186.218 389.732 171 377.079C98.7014 316.965 98.4828 190.887 173 132.211C187.925 120.458 206.953 109.802 226 107L226 36L225 1C210.234 5.05658 194.824 6.2551 180 10.7199C145.186 21.2051 111.994 39.7884 85 64.1698C-18.0058 157.207 -29.777 322.988 64.1698 427C92.7515 458.644 129.46 484.264 170 497.996C187.977 504.085 207.324 505.22 225 511M226 1L227 2L226 1M228 1L229 2L228 1M230 1L231 2L230 1z"/>
<path style="fill:#ad2ef4; stroke:none;" d="M219.667 2.33334L220.333 2.66666L219.667 2.33334M211 3L212 4L211 3z"/>
<path style="fill:#c85ff9; stroke:none;" d="M301 3L302 4L301 3z"/>
<path style="fill:#cd26fc; stroke:none;" d="M323 8L324 9L323 8z"/>
<path style="fill:#ad2ef4; stroke:none;" d="M166 15L167 16L166 15z"/>
<path style="fill:#c85ff9; stroke:none;" d="M345 15L346 16L345 15z"/>
<path style="fill:#ad2ef4; stroke:none;" d="M133 30L134 31L133 30z"/>
<path style="fill:#c85ff9; stroke:none;" d="M378 30L379 31L378 30M385 34L386 35L385 34M405 47L406 48L405 47z"/>
<path style="fill:#cd26fc; stroke:none;" d="M424 62L425 63L424 62M449 87L450 88L449 87z"/>
<path style="fill:#c85ff9; stroke:none;" d="M458 98L459 99L458 98M248 103L248 104L272 104L248 103M238 104L238 105L242 105L238 104z"/>
<path style="fill:#fffeff; stroke:none;" d="M330 286C328.896 299.99 326.094 313.617 317.319 325C288.624 362.227 228.187 357.874 200.899 322C164.738 274.463 176.618 177.066 243 162.668C263.373 158.25 286.546 161.776 305 171.259C315.532 176.672 324.709 184.992 336 188.899C352.2 194.505 370.021 187.129 372.699 169C376.59 142.656 350.349 125.366 329 116.8C282.407 98.1054 223.742 97.1336 181 126.194C100.66 180.818 95.8328 312.986 169 375.7C197.522 400.147 231.591 407.014 268 407C289.184 406.992 311.643 400.623 330 390.127C368.322 368.216 393.858 323.244 394 279C394.044 265.199 396.481 247.726 384.907 237.329C377.967 231.095 369.706 230.722 361 229.576C338.329 226.59 311.832 227.524 289 229.09C280.686 229.659 272.319 231.228 266.094 237.185C254.383 248.393 255.83 270.845 269.004 280.362C284.161 291.311 312.284 286 330 286z"/>
<path style="fill:#c85ff9; stroke:none;" d="M278 104L278 105L283 105L278 104M232 105L232 106L235 106L232 105M287 105L287 106L290 106L287 105M227.667 106.333L228.333 106.667L227.667 106.333M293 106L293 107L296 107L293 106M464 106L465 107L464 106z"/>
<path style="fill:#ad2ef4; stroke:none;" d="M222 107L223 108L222 107z"/>
<path style="fill:#c85ff9; stroke:none;" d="M223.667 107.333L224.333 107.667L223.667 107.333M298.667 107.333L299.333 107.667L298.667 107.333M219.667 108.333L220.333 108.667L219.667 108.333M303.667 108.333L304.333 108.667L303.667 108.333z"/>
<path style="fill:#ad2ef4; stroke:none;" d="M215 109L216 110L215 109z"/>
<path style="fill:#c85ff9; stroke:none;" d="M216 109L217 110L216 109M307.667 109.333L308.333 109.667L307.667 109.333z"/>
<path style="fill:#ad2ef4; stroke:none;" d="M212 110L213 111L212 110z"/>
<path style="fill:#c85ff9; stroke:none;" d="M213 110L214 111L213 110M310.667 110.333L311.333 110.667L310.667 110.333z"/>
<path style="fill:#ad2ef4; stroke:none;" d="M209 111L210 112L209 111z"/>
<path style="fill:#c85ff9; stroke:none;" d="M210 111L211 112L210 111M314 111L315 112L314 111M207 112L208 113L207 112M317.667 112.333L318.333 112.667L317.667 112.333z"/>
<path style="fill:#ad2ef4; stroke:none;" d="M204 113L205 114L204 113z"/>
<path style="fill:#c85ff9; stroke:none;" d="M205 113L206 114L205 113M320.667 113.333L321.333 113.667L320.667 113.333M202 114L203 115L202 114M323 114L324 115L323 114M200 115L201 116L200 115M325.667 115.333L326.333 115.667L325.667 115.333z"/>
<path style="fill:#ad2ef4; stroke:none;" d="M197 116L198 117L197 116z"/>
<path style="fill:#c85ff9; stroke:none;" d="M198 116L199 117L198 116M328 116L329 117L328 116z"/>
<path style="fill:#ad2ef4; stroke:none;" d="M195 117L196 118L195 117z"/>
<path style="fill:#c85ff9; stroke:none;" d="M196 117L197 118L196 117M330.667 117.333L331.333 117.667L330.667 117.333M194 118L195 119L194 118M333 118L334 119L333 118M192 119L193 120L192 119M335 119L336 120L335 119M190 120L191 121L190 120M337 120L338 121L337 120z"/>
<path style="fill:#ad2ef4; stroke:none;" d="M37 121L38 122L37 121z"/>
<path style="fill:#c85ff9; stroke:none;" d="M188 121L189 122L188 121M339 121L340 122L339 121M341 122L342 123L341 122M185 123L186 124L185 123M342 123L343 124L342 123M183 124L184 125L183 124M344 124L345 125L344 124M346 125L347 126L346 125M180 126L181 127L180 126M347 126L348 127L347 126M179 127L180 128L179 127M349 127L350 128L349 127M177 128L178 129L177 128M350 128L351 129L350 128M176 129L177 130L176 129M352 129L353 130L352 129M353 130L354 131L353 130M173 131L174 132L173 131M354 131L355 132L354 131M172 132L173 133L172 132z"/>
<path style="fill:#ad2ef4; stroke:none;" d="M30 133L31 134L30 133z"/>
<path style="fill:#c85ff9; stroke:none;" d="M357 133L358 134L357 133M481 133L482 134L481 133M358 134L359 135L358 134M168 135L169 136L168 135M359 135L360 136L359 135M167 136L168 137L167 136M360 136L361 137L360 136M166 137L167 138L166 137M361 137L362 138L361 137M165 138L166 139L165 138M362 138L363 139L362 138M164 139L165 140L164 139M363 139L364 140L363 139M163 140L164 141L163 140M364 140L365 141L364 140M366 143L367 144L366 143M159 144L160 145L159 144M367 144L368 145L367 144M158 145L159 146L158 145M157 146L158 147L157 146M368 146L369 147L368 146M156 147L157 148L156 147M155 148L156 149L155 148M154 149L155 150L154 149M370.333 149.667L370.667 150.333L370.333 149.667M153 150L154 151L153 150M371 152L372 153L371 152M151 153L152 154L151 153M150 154L151 155L150 154M372.333 154.667L372.667 155.333L372.333 154.667M149 155L150 156L149 155M147 158L148 159L147 158M146 159L147 160L146 159M373 159L373 166L374 166L373 159M145 161L146 162L145 161M250 161L250 162L258 162L250 161M261 161L261 162L271 162L261 161M144 162L145 163L144 162M243 162L243 163L246 163L243 162M276 162L276 163L279 163L276 162M239.667 163.333L240.333 163.667L239.667 163.333M282.667 163.333L283.333 163.667L282.667 163.333M236 164L237 165L236 164M286.667 164.333L287.333 164.667L286.667 164.333M142 165L143 166L142 165M233 165L234 166L233 165M290.667 165.333L291.333 165.667L290.667 165.333z"/>
<path style="fill:#ad2ef4; stroke:none;" d="M15 166L16 167L15 166z"/>
<path style="fill:#c85ff9; stroke:none;" d="M230.667 166.333L231.333 166.667L230.667 166.333M293.667 166.333L294.333 166.667L293.667 166.333M496 166L497 167L496 166M141 167L142 168L141 167M228 167L229 168L228 167M296 167L297 168L296 167M140 168L141 169L140 168M226 168L227 169L226 168M299 168L300 169L299 168M224 169L225 170L224 169M301 169L302 170L301 169M139 170L140 171L139 170M222 170L223 171L222 170z"/>
<path style="fill:#ad2ef4; stroke:none;" d="M223 170L224 171L223 170z"/>
<path style="fill:#cd26fc; stroke:none;" d="M226 343L226 170C208.292 175.211 196.118 194.871 189.604 211C172.905 252.348 179.695 323.021 226 343z"/>
<path style="fill:#c85ff9; stroke:none;" d="M303 170L304 171L303 170M372.333 170.667L372.667 171.333L372.333 170.667z"/>
<path style="fill:#ad2ef4; stroke:none;" d="M221 171L222 172L221 171z"/>
<path style="fill:#c85ff9; stroke:none;" d="M305 171L306 172L305 171M138 172L139 173L138 172M219 172L220 173L219 172M307 172L308 173L307 172M137 173L138 174L137 173z"/>
<path style="fill:#ad2ef4; stroke:none;" d="M218 173L219 174L218 173z"/>
<path style="fill:#c85ff9; stroke:none;" d="M309 173L310 174L309 173M216 174L217 175L216 174M310 174L311 175L310 174M371 174L372 175L371 174M136 175L137 176L136 175M215 175L216 176L215 175M312 175L313 176L312 175z"/>
<path style="fill:#ad2ef4; stroke:none;" d="M214 176L215 177L214 176z"/>
<path style="fill:#c85ff9; stroke:none;" d="M370 176L371 177L370 176M135 177L136 178L135 177M212 177L213 178L212 177M315 177L316 178L315 177M211 178L212 179L211 178M317 178L318 179L317 178M369 178L370 179L369 178M134 179L135 180L134 179M210 179L211 180L210 179M318 179L319 180L318 179M209 180L210 181L209 180M320 180L321 181L320 180M368 180L369 181L368 180M133 181L134 182L133 181M208 181L209 182L208 181M321 181L322 182L321 181M367 181L368 182L367 181M207 182L208 183L207 182M323 182L324 183L323 182M132 183L133 184L132 183M206 183L207 184L206 183M324 183L325 184L324 183M205 184L206 185L205 184M326 184L327 185L326 184M131.333 185.667L131.667 186.333L131.333 185.667M204 185L205 186L204 185M328 185L329 186L328 185M203 186L204 187L203 186M330 186L331 187L330 186M362 186L363 187L362 186M332 187L333 188L332 187M361 187L362 188L361 187M130 188L131 189L130 188z"/>
<path style="fill:#ad2ef4; stroke:none;" d="M202 188L203 189L202 188z"/>
<path style="fill:#c85ff9; stroke:none;" d="M334 188L335 189L334 188M359 188L360 189L359 188M201 189L202 190L201 189M337 189L338 190L337 189M356.667 189.333L357.333 189.667L356.667 189.333M129 190L130 191L129 190M200 190L201 191L200 190M340 190L340 191L343 191L340 190M352.667 190.333L353.333 190.667L352.667 190.333M199 192L200 193L199 192M128 193L129 194L128 193M198 193L199 194L198 193M127.333 195.667L127.667 196.333L127.333 195.667M197 195L198 196L197 195M196 196L197 197L196 196M126 198L127 199L126 198M195 198L196 199L195 198M194 200L195 201L194 200M125 201L126 202L125 201M193 202L194 203L193 202M124.333 204.667L124.667 205.333L124.333 204.667M192 204L193 205L192 204M191 206L192 207L191 206M123.333 207.667L123.667 208.333L123.333 207.667M190 208L191 209L190 208M189.333 210.667L189.667 211.333L189.333 210.667M122.333 211.667L122.667 212.333L122.333 211.667M188 213L189 214L188 213M121.333 215.667L121.667 216.333L121.333 215.667M187 216L188 217L187 216z"/>
<path style="fill:#cd26fc; stroke:none;" d="M509 216L510 217L509 216z"/>
<path style="fill:#c85ff9; stroke:none;" d="M186.333 219.667L186.667 220.333L186.333 219.667M120 220L120 223L121 223L120 220M185.333 222.667L185.667 223.333L185.333 222.667M119 225L119 229L120 229L119 225M184 226L184 229L185 229L184 226M281 229L281 230L286 230L281 229M360 229L360 230L367 230L360 229M277.667 230.333L278.333 230.667L277.667 230.333M370.667 230.333L371.333 230.667L370.667 230.333M183 231L183 234L184 234L183 231M274 231L275 232L274 231M374.667 231.333L375.333 231.667L374.667 231.333M118 232L118 236L119 236L118 232M272 232L273 233L272 232M377 232L378 233L377 232M270 233L271 234L270 233M379 233L380 234L379 233M269 234L270 235L269 234M381 234L382 235L381 234M382 235L383 236L382 235M266 236L267 237L266 236M182 237L182 241L183 241L182 237M265 237L266 238L265 237M385 237L386 238L385 237M264 238L265 239L264 238M386 238L387 239L386 238M262 241L263 242L262 241M388 241L389 242L388 241M117 242L117 254L118 254L117 242M389 242L390 243L389 242M260.333 244.667L260.667 245.333L260.333 244.667M390 244L391 245L390 244M391.333 246.667L391.667 247.333L391.333 246.667M181 247L181 265L182 265L181 247M259 247L260 248L259 247M392.333 249.667L392.667 250.333L392.333 249.667M258 250L258 253L259 253L258 250M393.333 253.667L393.667 254.333L393.333 253.667M117 258L117 270L118 270L117 258M394 258L394 266L395 266L394 258M258 261L258 264L259 264L258 261M259.333 266.667L259.667 267.333L259.333 266.667M260 269L261 270L260 269M394 270L394 281L395 281L394 270M182 271L182 275L183 275L182 271M261 271L262 272L261 271M262 273L263 274L262 273M118 275L118 280L119 280L118 275M264 276L265 277L264 276M265 277L266 278L265 277z"/>
<path style="fill:#ad2ef4; stroke:none;" d="M0 278L1 279L0 278z"/>
<path style="fill:#c85ff9; stroke:none;" d="M183 278L183 281L184 281L183 278M266 278L267 279L266 278M511 278L512 279L511 278z"/>
<path style="fill:#010101; stroke:none;" d="M0 279L0 512L233 512L233 511C144.924 510.757 58.6505 440.98 23.3086 364C15.393 346.759 9.16444 328.566 5.21065 310C3.16112 300.376 3.74146 287.896 0 279z"/>
<path style="fill:#c85ff9; stroke:none;" d="M267 279L268 280L267 279z"/>
<path style="fill:#010101; stroke:none;" d="M511 279C510.932 303.566 502.906 329.415 493.799 352C466.251 420.32 407.954 475.664 338 499C319.315 505.233 298.831 510.945 279 511L279 512L512 512L512 348L512 301L511 279z"/>
<path style="fill:#c85ff9; stroke:none;" d="M270 281L271 282L270 281M272 282L273 283L272 282M119 283L119 286L120 286L119 283M274 283L275 284L274 283M184.333 284.667L184.667 285.333L184.333 284.667M276.667 284.333L277.333 284.667L276.667 284.333M280 285L280 286L283 286L280 285M329 286L329 291L330 291L329 286M393 287L393 291L394 291L393 287M185.333 288.667L185.667 289.333L185.333 288.667M120.333 289.667L120.667 290.333L120.333 289.667M186.333 292.667L186.667 293.333L186.333 292.667M121.333 294.667L121.667 295.333L121.333 294.667M392 294L392 297L393 297L392 294M187.333 295.667L187.667 296.333L187.333 295.667z"/>
<path style="fill:#cd26fc; stroke:none;" d="M509 295L510 296L509 295z"/>
<path style="fill:#c85ff9; stroke:none;" d="M328 296L328 300L329 300L328 296M122.333 298.667L122.667 299.333L122.333 298.667M188.333 298.667L188.667 299.333L188.333 298.667M391 300L391 303L392 303L391 300M189 301L190 302L189 301M123.333 302.667L123.667 303.333L123.333 302.667M327.333 302.667L327.667 303.333L327.333 302.667M190.333 303.667L190.667 304.333L190.333 303.667M124.333 305.667L124.667 306.333L124.333 305.667M390.333 305.667L390.667 306.333L390.333 305.667M191 306L192 307L191 306M326.333 306.667L326.667 307.333L326.333 306.667M192 308L193 309L192 308M125 309L126 310L125 309M325.333 309.667L325.667 310.333L325.333 309.667M389.333 309.667L389.667 310.333L389.333 309.667M193 310L194 311L193 310M126 312L127 313L126 312M194 312L195 313L194 312M324 312L325 313L324 312z"/>
<path style="fill:#ad2ef4; stroke:none;" d="M195 313L196 314L195 313z"/>
<path style="fill:#c85ff9; stroke:none;" d="M388 313L389 314L388 313M195 314L196 315L195 314M323.333 314.667L323.667 315.333L323.333 314.667M127 315L128 316L127 315M196 315L197 316L196 315M322 316L323 317L322 316M387.333 316.667L387.667 317.333L387.333 316.667M128 317L129 318L128 317M197 317L198 318L197 317z"/>
<path style="fill:#ad2ef4; stroke:none;" d="M198 318L199 319L198 318z"/>
<path style="fill:#c85ff9; stroke:none;" d="M321 318L322 319L321 318M386.333 319.667L386.667 320.333L386.333 319.667M129 320L130 321L129 320M199 320L200 321L199 320M320 320L321 321L320 320M200 321L201 322L200 321M130 322L131 323L130 322M319 322L320 323L319 322M385.333 322.667L385.667 323.333L385.333 322.667M318 323L319 324L318 323M131.333 324.667L131.667 325.333L131.333 324.667M202 324L203 325L202 324M203 325L204 326L203 325M384 325L385 326L384 325M204 326L205 327L204 326M316 326L317 327L316 326M132 327L133 328L132 327z"/>
<path style="fill:#ad2ef4; stroke:none;" d="M205 327L206 328L205 327z"/>
<path style="fill:#c85ff9; stroke:none;" d="M315 327L316 328L315 327M383.333 327.667L383.667 328.333L383.333 327.667M314 328L315 329L314 328M133 329L134 330L133 329M313 329L314 330L313 329M312 330L313 331L312 330M382 330L383 331L382 330M134 331L135 332L134 331M311 331L312 332L311 331z"/>
<path style="fill:#ad2ef4; stroke:none;" d="M210 332L211 333L210 332z"/>
<path style="fill:#c85ff9; stroke:none;" d="M310 332L311 333L310 332M381 332L382 333L381 332M135 333L136 334L135 333z"/>
<path style="fill:#ad2ef4; stroke:none;" d="M211 333L212 334L211 333z"/>
<path style="fill:#c85ff9; stroke:none;" d="M309 333L310 334L309 333M212 334L213 335L212 334M308 334L309 335L308 334M380 334L381 335L380 334M136 335L137 336L136 335M213 335L214 336L213 335M307 335L308 336L307 335M214 336L215 337L214 336M305 336L306 337L305 336M379 336L380 337L379 336z"/>
<path style="fill:#ad2ef4; stroke:none;" d="M216 337L217 338L216 337z"/>
<path style="fill:#c85ff9; stroke:none;" d="M304 337L305 338L304 337M138 338L139 339L138 338M217 338L218 339L217 338M303 338L304 339L303 338M378 338L379 339L378 338z"/>
<path style="fill:#ad2ef4; stroke:none;" d="M219 339L220 340L219 339z"/>
<path style="fill:#c85ff9; stroke:none;" d="M301 339L302 340L301 339M139 340L140 341L139 340M220 340L221 341L220 340M299 340L300 341L299 340M377 340L378 341L377 340M222 341L223 342L222 341M298 341L299 342L298 341M140 342L141 343L140 342M224 342L225 343L224 342M296 342L297 343L296 342M376 342L377 343L376 342M141 343L142 344L141 343M225.667 343.333L226.333 343.667L225.667 343.333M293 343L294 344L293 343M228 344L229 345L228 344M291 344L292 345L291 344M375 344L376 345L375 344M142 345L143 346L142 345M230 345L231 346L230 345M288.667 345.333L289.333 345.667L288.667 345.333M496 345L497 346L496 345M143 346L144 347L143 346M232.667 346.333L233.333 346.667L232.667 346.333M286 346L287 347L286 346M374 346L375 347L374 346M235.667 347.333L236.333 347.667L235.667 347.333M282.667 347.333L283.333 347.667L282.667 347.333M373 347L374 348L373 347M144 348L145 349L144 348M239.667 348.333L240.333 348.667L239.667 348.333M278.667 348.333L279.333 348.667L278.667 348.333M145 349L146 350L145 349M243 349L243 350L246 350L243 349M273.667 349.333L274.333 349.667L273.667 349.333M372 349L373 350L372 349M250 350L250 351L258 351L250 350M260 350L260 351L269 351L260 350M371 350L372 351L371 350M146 351L147 352L146 351M147 352L148 353L147 352M370 352L371 353L370 352M369 353L370 354L369 353M149 355L150 356L149 355M368 355L369 356L368 355M150 356L151 357L150 356M367 356L368 357L367 356M151 357L152 358L151 357M365 359L366 360L365 359M364 360L365 361L364 360M154 361L155 362L154 361M363 361L364 362L363 361M155 362L156 363L155 362M156 363L157 364L156 363M157 364L158 365L157 364M158 365L159 366L158 365M360 365L361 366L360 365M159 366L160 367L159 366M359 366L360 367L359 366M160 367L161 368L160 367M358 367L359 368L358 367M161 368L162 369L161 368M357 368L358 369L357 368M162 369L163 370L162 369M356 369L357 370L356 369M163 370L164 371L163 370M355 370L356 371L355 370M164 371L165 372L164 371M354 371L355 372L354 371M165 372L166 373L165 372M353 372L354 373L353 372M166 373L167 374L166 373M352 373L353 374L352 373M167 374L168 375L167 374M351 374L352 375L351 374M350 375L351 376L350 375M349 376L350 377L349 376M171 377L172 378L171 377M172 378L173 379L172 378M346 378L347 379L346 378M481 378L482 379L481 378M173 379L174 380L173 379M345 379L346 380L345 379M175 380L176 381L175 380M344 380L345 381L344 380M176 381L177 382L176 381M177 382L178 383L177 382M341 382L342 383L341 382M179 383L180 384L179 383M340 383L341 384L340 383M180 384L181 385L180 384M338 384L339 385L338 384M182 385L183 386L182 385M337 385L338 386L337 385z"/>
<path style="fill:#cd26fc; stroke:none;" d="M477 385L478 386L477 385z"/>
<path style="fill:#c85ff9; stroke:none;" d="M183 386L184 387L183 386M335 386L336 387L335 386M185 387L186 388L185 387M334 387L335 388L334 387M187 388L188 389L187 388M332 388L333 389L332 388M188 389L189 390L188 389z"/>
<path style="fill:#ad2ef4; stroke:none;" d="M37 390L38 391L37 390z"/>
<path style="fill:#c85ff9; stroke:none;" d="M190 390L191 391L190 390M329 390L330 391L329 390M474 390L475 391L474 390M192 391L193 392L192 391M327 391L328 392L327 391M194 392L195 393L194 392M325 392L326 393L325 392z"/>
<path style="fill:#ad2ef4; stroke:none;" d="M195 393L196 394L195 393z"/>
<path style="fill:#c85ff9; stroke:none;" d="M196 393L197 394L196 393M323 393L324 394L323 393z"/>
<path style="fill:#ad2ef4; stroke:none;" d="M197 394L198 395L197 394z"/>
<path style="fill:#c85ff9; stroke:none;" d="M198 394L199 395L198 394M321 394L322 395L321 394M200 395L201 396L200 395M319 395L320 396L319 395M202 396L203 397L202 396M316.667 396.333L317.333 396.667L316.667 396.333z"/>
<path style="fill:#ad2ef4; stroke:none;" d="M204 397L205 398L204 397z"/>
<path style="fill:#c85ff9; stroke:none;" d="M205 397L206 398L205 397M314 397L315 398L314 397M207 398L208 399L207 398M311.667 398.333L312.333 398.667L311.667 398.333z"/>
<path style="fill:#ad2ef4; stroke:none;" d="M209 399L210 400L209 399z"/>
<path style="fill:#c85ff9; stroke:none;" d="M210 399L211 400L210 399M309 399L310 400L309 399z"/>
<path style="fill:#ad2ef4; stroke:none;" d="M212 400L213 401L212 400z"/>
<path style="fill:#c85ff9; stroke:none;" d="M213 400L214 401L213 400M306 400L307 401L306 400z"/>
<path style="fill:#ad2ef4; stroke:none;" d="M215 401L216 402L215 401z"/>
<path style="fill:#c85ff9; stroke:none;" d="M216 401L217 402L216 401M302.667 401.333L303.333 401.667L302.667 401.333M219.667 402.333L220.333 402.667L219.667 402.333M299.667 402.333L300.333 402.667L299.667 402.333z"/>
<path style="fill:#ad2ef4; stroke:none;" d="M222 403L223 404L222 403z"/>
<path style="fill:#c85ff9; stroke:none;" d="M223.667 403.333L224.333 403.667L223.667 403.333M295.667 403.333L296.333 403.667L295.667 403.333M227.667 404.333L228.333 404.667L227.667 404.333M290.667 404.333L291.333 404.667L290.667 404.333M232 405L232 406L235 406L232 405M284 405L284 406L287 406L284 405M238 406L238 407L243 407L238 406M277 406L277 407L281 407L277 406M249 407L249 408L270 408L249 407M458 413L459 414L458 413z"/>
<path style="fill:#cd26fc; stroke:none;" d="M449 424L450 425L449 424M424 449L425 450L424 449z"/>
<path style="fill:#ad2ef4; stroke:none;" d="M93 454L94 455L93 454z"/>
<path style="fill:#c85ff9; stroke:none;" d="M390 474L391 475L390 474z"/>
<path style="fill:#ad2ef4; stroke:none;" d="M126 477L127 478L126 477z"/>
<path style="fill:#cd26fc; stroke:none;" d="M362 489L363 490L362 489z"/>
<path style="fill:#ad2ef4; stroke:none;" d="M161 494L162 495L161 494M178 500L179 501L178 500z"/>
<path style="fill:#cd26fc; stroke:none;" d="M311 506L312 507L311 506z"/>
<path style="fill:#ad2ef4; stroke:none;" d="M211 508L212 509L211 508M221 509L222 510L221 509z"/>
<path style="fill:#cd26fc; stroke:none;" d="M295 509L296 510L295 509M233.667 511.333L234.333 511.667L233.667 511.333z"/>
</svg>
